# xmcd
#
# Track frame offsets:
#	150
#	13482
#	29254
#	47238
#	62347
#	75702
#	89367
#	103225
#	117324
#
# Disc length: 1751 seconds
#
# Revision: 1
# Processed by: cddbd v1.5.1PL0 Copyright (c) Steve Scherf et al.
# Submitted via: audiograbber 1.83.01
#
DISCID=7306d509
DTITLE=Carl Hooper - Heaven Bound
DYEAR=2002
DGENRE=General Religious
TTITLE0=I'm Heaven Bound
TTITLE1=Don't Be Left Out In The Cold
TTITLE2=Here Is My Heart
TTITLE3=More Than Yesterday
TTITLE4=Talking To Jesus Again
TTITLE5=I Just Want To Love You Lord
TTITLE6=I Use To Go To Sunday School
TTITLE7=I Dreamed I Saw Mother In Prayer
TTITLE8=I've Got The Love Of Jesus In My Heart
EXTD=
EXTT0=
EXTT1=
EXTT2=
EXTT3=
EXTT4=
EXTT5=
EXTT6=
EXTT7=
EXTT8=
PLAYORDER=
